/* XPM */
static char *_98c8145822a4cfcc8dedf697e3ce6b8dpthp8zePMkNbR9g[] = {
/* columns rows colors chars-per-pixel */
"32 32 10 1 ",
"  c black",
". c #191715",
"X c #795547",
"o c #96725F",
"O c #AE846E",
"+ c #948880",
"@ c #A79A90",
"# c #BAACA1",
"$ c #C2B09B",
"% c #D4C0AA",
/* pixels */
"                                ",
"                                ",
"                                ",
"                                ",
"                   @         @  ",
"                 @ #         @ @",
"                 # @@       @# #",
"                 @++#@     @#++@",
"                    @X#@  @X@   ",
"                   @+%XO+@X%+@  ",
"                      oOO%%O    ",
"                       oO.%%    ",
"                       oOOOOO.  ",
"                       oOOOOoo  ",
"                      oOOOOo    ",
"                    ooOOO%$     ",
"               oooooOOO%%$      ",
"       ooooooooOOOOOOOO%$       ",
"   OoooOOOOOOOOOOOOOOO%%$       ",
"  OoOOOOOOOOOOOOOOOOOO%$        ",
"    ooOOOOOOOOOOOOOOOO%$        ",
"     oOOOOOOOOOOOOOOO%%$        ",
"     ooOOOOOOO%$$%%%%%$@        ",
"     $%oOOOO%$$  $$%%%$@        ",
"      $%%%%$$@     $$%$@        ",
"      $%%%$@@        $%         ",
"       $%$@@@       %%$         ",
"        %$ @@     XX$           ",
"        $%  @                   ",
"         %  X                   ",
"         X  X                   ",
"         X                      "
};
