/* XPM */
static char *_e336f12078f4c77b65af4dd54f684abr4MRDtvV3ylFWp2l[] = {
/* columns rows colors chars-per-pixel */
"32 32 10 1 ",
"  c black",
". c #191715",
"X c #795547",
"o c #96725F",
"O c #AE846E",
"+ c #948880",
"@ c #A79A90",
"# c #BAACA1",
"$ c #C2B09B",
"% c #D4C0AA",
/* pixels */
"                                ",
"                                ",
"                   @         @  ",
"                 @ #         @ @",
"                 # @@       @# #",
"                 @++#@     @#++@",
"                    @X#@  @X@   ",
"                   @+%XO+@X%+@  ",
"                      oOO%%O    ",
"                       oO.%%    ",
"                       oOOOOO.  ",
"                       oOOOOoo  ",
"                      oOOOOo    ",
"                    ooOOO%$     ",
"  OOO oooo      ooooOOO%%$      ",
"   oOoOOOOooooooOOOOOOO%$       ",
"    oOOOOOOOOOOOOOOOOOO%$       ",
"     oOOOOOOOOOOOOOOOO%$        ",
"    OoOOOOOOOOOOOOOOOO%$        ",
"    ooOOOOOOOOOOOOOOOO%@        ",
"   $%%%%%%OOOOOOOOOOO%$@@       ",
"   $%%%$$$$$$$$$%%%%%%$@@@      ",
"   $%$$@        $$$$$%$ @@@     ",
"   % @@              $%   @@    ",
"  $% X                $%   @    ",
"  X X                  $%   X   ",
" X                      X    X  ",
"                         X      ",
"                                ",
"                                ",
"                                ",
"                                "
};
