/* XPM */
static char *c133fe7d8b534a9695ea9c925315bc9c7IHHGngqq5jOFYzG[] = {
/* columns rows colors chars-per-pixel */
"32 32 10 1 ",
"  c black",
". c #191715",
"X c #795547",
"o c #96725F",
"O c #AE846E",
"+ c #948880",
"@ c #A79A90",
"# c #BAACA1",
"$ c #C2B09B",
"% c #D4C0AA",
/* pixels */
"                                ",
"                                ",
"                                ",
"                                ",
"                                ",
"                  @        @    ",
"                  @#       #@ @ ",
"                @  @#@      #@ #",
"                 @#+@XXO@@XX@++@",
"                   @+%oOO.%%+@  ",
"                       oOOOOO.  ",
"                       oOOOOoo  ",
"                       oOOOo    ",
"                      oOOO%$    ",
"  OOo ooooooo       ooOOO%$     ",
"   oOoOOOOOOOoooooooOOO%%$      ",
"    oOOOOOOOOOOOOOOOOOO%$       ",
"    ooOOOOOOOOOOOOOOOOO%$       ",
"     oOOOOOOOOOOOOOOOO%$        ",
"     oOOOOOOOOOOOOOOOO%$        ",
"    $%oOO%%%OOOOOOOOOO$@        ",
"   $%%%%%$$$$$$$$OOOO%$@        ",
"   %%$$$$        %$%%%$@@       ",
"  %$XX@            $$%%$@       ",
"XX$                  $%%@       ",
"                      $%@@      ",
"                       % @      ",
"                       % @      ",
"                       %  X     ",
"                        X X     ",
"                        X       ",
"                                "
};
