/* XPM */
static char *_bf7cd7afec2438cfa0cc61f07639993vXFJ4Ai1pg2tzfTT[] = {
/* columns rows colors chars-per-pixel */
"96 32 10 1 ",
"  c black",
". c #191715",
"X c #795547",
"o c #96725F",
"O c #AE846E",
"+ c #948880",
"@ c #A79A90",
"# c #BAACA1",
"$ c #C2B09B",
"% c #D4C0AA",
/* pixels */
"                                                                                                ",
"                                                                                                ",
"                                                                                                ",
"                                                                                                ",
"                                                                                                ",
"                  @        @                      @        @                      @        @    ",
"                  @#       #@ @                   @#       #@ @                   @#       #@ @ ",
"                @  @#@      #@ #                @  @#@      #@ #                @  @#@      #@ #",
"                 @#+@XXO@@XX@++@                 @#+@XXO@@XX@++@                 @#+@XXO@@XX@++@",
"                   @+%oOO.%%+@                     @+%oOO.%%+@                     @+%oOO.%%+@  ",
"                       oOOOOO.                         oOOOOO.                         oOOOOO.  ",
"                       oOOOOoo                         oOOOOoo                         oOOOOoo  ",
"                       oOOOo                           oOOOo                           oOOOo    ",
"                      oOOO%$                          oOOO%$                          oOOO%$    ",
"  OOo ooooooo       ooOOO%$       OOo ooooooo       ooOOO%$       OOo ooooooo       ooOOO%$     ",
"   oOoOOOOOOOoooooooOOO%%$         oOoOOOOOOOoooooooOOO%%$         oOoOOOOOOOoooooooOOO%%$      ",
"    oOOOOOOOOOOOOOOOOOO%$           oOOOOOOOOOOOOOOOOOO%$           oOOOOOOOOOOOOOOOOOO%$       ",
"    ooOOOOOOOOOOOOOOOOO%$           ooOOOOOOOOOOOOOOOOO%$           ooOOOOOOOOOOOOOOOOO%$       ",
"     oOOOOOOOOOOOOOOOO%$             oOOOOOOOOOOOOOOOO%$             oOOOOOOOOOOOOOOOO%$        ",
"     oOOOOOOOOOOOOOOOO%$             oOOOOOOOOOOOOOOOO%$             oOOOOOOOOOOOOOOOO%$        ",
"    $%oOO%%%OOOOOOOOOO$@            $%oOO%%%OOOOOOOOOO$@            $%oOO%%%OOOOOOOOOO$@        ",
"   $%%%%%$$$$$$$$OOOO%$@           $%%%%%$$$$$$$$OOOO%$@           $%%%%%$$$$$$$$OOOO%$@        ",
"   %%$$$$        %$%%%$@@          %%$$$$        %$%%%$@@          %%$$$$        %$%%%$@@       ",
"  %$XX@            $$%%$@         %$XX@            $$%%$@         %$XX@            $$%%$@       ",
"XX$                  $%%@       XX$                  $%%@       XX$                  $%%@       ",
"                      $%@@                            $%@@                            $%@@      ",
"                       % @                             % @                             % @      ",
"                       % @                             % @                             % @      ",
"                       %  X                            %  X                            %  X     ",
"                        X X                             X X                             X X     ",
"                        X                               X                               X       ",
"                                                                                                "
};
