/* XPM */
static char *_cb747432e664fb7d4c79641523ab5a2E5xvZvaq5kxtPenD[] = {
/* columns rows colors chars-per-pixel */
"96 32 10 1 ",
"  c black",
". c #191715",
"X c #795547",
"o c #96725F",
"O c #AE846E",
"+ c #948880",
"@ c #A79A90",
"# c #BAACA1",
"$ c #C2B09B",
"% c #D4C0AA",
/* pixels */
"                                                                                                ",
"                                                                                                ",
"  @         @                     @         @                     @         @                   ",
"@ @         # @                 @ @         # @                 @ @         # @                 ",
"# #@       @@ #                 # #@       @@ #                 # #@       @@ #                 ",
"@++#@     @#++@                 @++#@     @#++@                 @++#@     @#++@                 ",
"   @X@  @#X@                       @X@  @#X@                       @X@  @#X@                    ",
"  @+%X@+OX%+@                     @+%X@+OX%+@                     @+%X@+OX%+@                   ",
"    O%%OOo                          O%%OOo                          O%%OOo                      ",
"    %%.Oo                           %%.Oo                           %%.Oo                       ",
"  .OOOOOo                         .OOOOOo                         .OOOOOo                       ",
"  ooOOOOo                         ooOOOOo                         ooOOOOo                       ",
"    oOOOOo                          oOOOOo                          oOOOOo                      ",
"     $%OOOoo                         $%OOOoo                         $%OOOoo                    ",
"      $%%OOOoooo      oooo OOO        $%%OOOoooo      oooo OOO        $%%OOOoooo      oooo OOO  ",
"       $%OOOOOOOooooooOOOOoOo          $%OOOOOOOooooooOOOOoOo          $%OOOOOOOooooooOOOOoOo   ",
"       $%OOOOOOOOOOOOOOOOOOo           $%OOOOOOOOOOOOOOOOOOo           $%OOOOOOOOOOOOOOOOOOo    ",
"        $%OOOOOOOOOOOOOOOOo             $%OOOOOOOOOOOOOOOOo             $%OOOOOOOOOOOOOOOOo     ",
"        $%OOOOOOOOOOOOOOOOoO            $%OOOOOOOOOOOOOOOOoO            $%OOOOOOOOOOOOOOOOoO    ",
"        @%OOOOOOOOOOOOOOOOoo            @%OOOOOOOOOOOOOOOOoo            @%OOOOOOOOOOOOOOOOoo    ",
"       @@$%OOOOOOOOOOO%%%%%%$          @@$%OOOOOOOOOOO%%%%%%$          @@$%OOOOOOOOOOO%%%%%%$   ",
"      @@@$%%%%%%$$$$$$$$$%%%$         @@@$%%%%%%$$$$$$$$$%%%$         @@@$%%%%%%$$$$$$$$$%%%$   ",
"     @@@ $%$$$$$        @$$%$        @@@ $%$$$$$        @$$%$        @@@ $%$$$$$        @$$%$   ",
"    @@   %$              @@ %       @@   %$              @@ %       @@   %$              @@ %   ",
"    @   %$                X %$      @   %$                X %$      @   %$                X %$  ",
"   X   %$                  X X     X   %$                  X X     X   %$                  X X  ",
"  X    X                      X   X    X                      X   X    X                      X ",
"      X                               X                               X                         ",
"                                                                                                ",
"                                                                                                ",
"                                                                                                ",
"                                                                                                "
};
