/* XPM */
static char *a36c5fe9c0c94718cbc5d07dd602e9cb4pXSquhRVoPqSVol[] = {
/* columns rows colors chars-per-pixel */
"96 32 10 1 ",
"  c black",
". c #191715",
"X c #795547",
"o c #96725F",
"O c #AE846E",
"+ c #948880",
"@ c #A79A90",
"# c #BAACA1",
"$ c #C2B09B",
"% c #D4C0AA",
/* pixels */
"                                                                                                ",
"                                                                                                ",
"                                                                                                ",
"                                                                                                ",
"                   @         @                     @         @                     @         @  ",
"                 @ #         @ @                 @ #         @ @                 @ #         @ @",
"                 # @@       @# #                 # @@       @# #                 # @@       @# #",
"                 @++#@     @#++@                 @++#@     @#++@                 @++#@     @#++@",
"                    @X#@  @X@                       @X#@  @X@                       @X#@  @X@   ",
"                   @+%XO+@X%+@                     @+%XO+@X%+@                     @+%XO+@X%+@  ",
"                      oOO%%O                          oOO%%O                          oOO%%O    ",
"                       oO.%%                           oO.%%                           oO.%%    ",
"                       oOOOOO.                         oOOOOO.                         oOOOOO.  ",
"                       oOOOOoo                         oOOOOoo                         oOOOOoo  ",
"                      oOOOOo                          oOOOOo                          oOOOOo    ",
"                    ooOOO%$                         ooOOO%$                         ooOOO%$     ",
"               oooooOOO%%$                     oooooOOO%%$                     oooooOOO%%$      ",
"       ooooooooOOOOOOOO%$              ooooooooOOOOOOOO%$              ooooooooOOOOOOOO%$       ",
"   OoooOOOOOOOOOOOOOOO%%$          OoooOOOOOOOOOOOOOOO%%$          OoooOOOOOOOOOOOOOOO%%$       ",
"  OoOOOOOOOOOOOOOOOOOO%$          OoOOOOOOOOOOOOOOOOOO%$          OoOOOOOOOOOOOOOOOOOO%$        ",
"    ooOOOOOOOOOOOOOOOO%$            ooOOOOOOOOOOOOOOOO%$            ooOOOOOOOOOOOOOOOO%$        ",
"     oOOOOOOOOOOOOOOO%%$             oOOOOOOOOOOOOOOO%%$             oOOOOOOOOOOOOOOO%%$        ",
"     ooOOOOOOO%$$%%%%%$@             ooOOOOOOO%$$%%%%%$@             ooOOOOOOO%$$%%%%%$@        ",
"     $%oOOOO%$$  $$%%%$@             $%oOOOO%$$  $$%%%$@             $%oOOOO%$$  $$%%%$@        ",
"      $%%%%$$@     $$%$@              $%%%%$$@     $$%$@              $%%%%$$@     $$%$@        ",
"      $%%%$@@        $%               $%%%$@@        $%               $%%%$@@        $%         ",
"       $%$@@@       %%$                $%$@@@       %%$                $%$@@@       %%$         ",
"        %$ @@     XX$                   %$ @@     XX$                   %$ @@     XX$           ",
"        $%  @                           $%  @                           $%  @                   ",
"         %  X                            %  X                            %  X                   ",
"         X  X                            X  X                            X  X                   ",
"         X                               X                               X                      "
};
