/* XPM */
static char *_0d3a0e7e0cc4ccbfb9f04a5c76ea8f34YzPcjFsQzXdntad[] = {
/* columns rows colors chars-per-pixel */
"96 32 10 1 ",
"  c black",
". c #191715",
"X c #795547",
"o c #96725F",
"O c #AE846E",
"+ c #948880",
"@ c #A79A90",
"# c #BAACA1",
"$ c #C2B09B",
"% c #D4C0AA",
/* pixels */
"                                                                                                ",
"                                                                                                ",
"                   @         @                     @         @                     @         @  ",
"                 @ #         @ @                 @ #         @ @                 @ #         @ @",
"                 # @@       @# #                 # @@       @# #                 # @@       @# #",
"                 @++#@     @#++@                 @++#@     @#++@                 @++#@     @#++@",
"                    @X#@  @X@                       @X#@  @X@                       @X#@  @X@   ",
"                   @+%XO+@X%+@                     @+%XO+@X%+@                     @+%XO+@X%+@  ",
"                      oOO%%O                          oOO%%O                          oOO%%O    ",
"                       oO.%%                           oO.%%                           oO.%%    ",
"                       oOOOOO.                         oOOOOO.                         oOOOOO.  ",
"                       oOOOOoo                         oOOOOoo                         oOOOOoo  ",
"                      oOOOOo                          oOOOOo                          oOOOOo    ",
"                    ooOOO%$                         ooOOO%$                         ooOOO%$     ",
"  OOO oooo      ooooOOO%%$        OOO oooo      ooooOOO%%$        OOO oooo      ooooOOO%%$      ",
"   oOoOOOOooooooOOOOOOO%$          oOoOOOOooooooOOOOOOO%$          oOoOOOOooooooOOOOOOO%$       ",
"    oOOOOOOOOOOOOOOOOOO%$           oOOOOOOOOOOOOOOOOOO%$           oOOOOOOOOOOOOOOOOOO%$       ",
"     oOOOOOOOOOOOOOOOO%$             oOOOOOOOOOOOOOOOO%$             oOOOOOOOOOOOOOOOO%$        ",
"    OoOOOOOOOOOOOOOOOO%$            OoOOOOOOOOOOOOOOOO%$            OoOOOOOOOOOOOOOOOO%$        ",
"    ooOOOOOOOOOOOOOOOO%@            ooOOOOOOOOOOOOOOOO%@            ooOOOOOOOOOOOOOOOO%@        ",
"   $%%%%%%OOOOOOOOOOO%$@@          $%%%%%%OOOOOOOOOOO%$@@          $%%%%%%OOOOOOOOOOO%$@@       ",
"   $%%%$$$$$$$$$%%%%%%$@@@         $%%%$$$$$$$$$%%%%%%$@@@         $%%%$$$$$$$$$%%%%%%$@@@      ",
"   $%$$@        $$$$$%$ @@@        $%$$@        $$$$$%$ @@@        $%$$@        $$$$$%$ @@@     ",
"   % @@              $%   @@       % @@              $%   @@       % @@              $%   @@    ",
"  $% X                $%   @      $% X                $%   @      $% X                $%   @    ",
"  X X                  $%   X     X X                  $%   X     X X                  $%   X   ",
" X                      X    X   X                      X    X   X                      X    X  ",
"                         X                               X                               X      ",
"                                                                                                ",
"                                                                                                ",
"                                                                                                ",
"                                                                                                "
};
