/* XPM */
static char *f7743d2992154a8e9b3de5c23aec5db60h33sXLHRvd2GORj[] = {
/* columns rows colors chars-per-pixel */
"96 32 10 1 ",
"  c black",
". c #191715",
"X c #795547",
"o c #96725F",
"O c #AE846E",
"+ c #948880",
"@ c #A79A90",
"# c #BAACA1",
"$ c #C2B09B",
"% c #D4C0AA",
/* pixels */
"                                                                                                ",
"                                                                                                ",
"                                                                                                ",
"                                                                                                ",
"  @         @                     @         @                     @         @                   ",
"@ @         # @                 @ @         # @                 @ @         # @                 ",
"# #@       @@ #                 # #@       @@ #                 # #@       @@ #                 ",
"@++#@     @#++@                 @++#@     @#++@                 @++#@     @#++@                 ",
"   @X@  @#X@                       @X@  @#X@                       @X@  @#X@                    ",
"  @+%X@+OX%+@                     @+%X@+OX%+@                     @+%X@+OX%+@                   ",
"    O%%OOo                          O%%OOo                          O%%OOo                      ",
"    %%.Oo                           %%.Oo                           %%.Oo                       ",
"  .OOOOOo                         .OOOOOo                         .OOOOOo                       ",
"  ooOOOOo                         ooOOOOo                         ooOOOOo                       ",
"    oOOOOo                          oOOOOo                          oOOOOo                      ",
"     $%OOOoo                         $%OOOoo                         $%OOOoo                    ",
"      $%%OOOooooo                     $%%OOOooooo                     $%%OOOooooo               ",
"       $%OOOOOOOOoooooooo              $%OOOOOOOOoooooooo              $%OOOOOOOOoooooooo       ",
"       $%%OOOOOOOOOOOOOOOoooO          $%%OOOOOOOOOOOOOOOoooO          $%%OOOOOOOOOOOOOOOoooO   ",
"        $%OOOOOOOOOOOOOOOOOOoO          $%OOOOOOOOOOOOOOOOOOoO          $%OOOOOOOOOOOOOOOOOOoO  ",
"        $%OOOOOOOOOOOOOOOOoo            $%OOOOOOOOOOOOOOOOoo            $%OOOOOOOOOOOOOOOOoo    ",
"        $%%OOOOOOOOOOOOOOOo             $%%OOOOOOOOOOOOOOOo             $%%OOOOOOOOOOOOOOOo     ",
"        @$%%%%%$$%OOOOOOOoo             @$%%%%%$$%OOOOOOOoo             @$%%%%%$$%OOOOOOOoo     ",
"        @$%%%$$  $$%OOOOo%$             @$%%%$$  $$%OOOOo%$             @$%%%$$  $$%OOOOo%$     ",
"        @$%$$     @$$%%%%$              @$%$$     @$$%%%%$              @$%$$     @$$%%%%$      ",
"         %$        @@$%%%$               %$        @@$%%%$               %$        @@$%%%$      ",
"         $%%       @@@$%$                $%%       @@@$%$                $%%       @@@$%$       ",
"           $XX     @@ $%                   $XX     @@ $%                   $XX     @@ $%        ",
"                   @  %$                           @  %$                           @  %$        ",
"                   X  %                            X  %                            X  %         ",
"                   X  X                            X  X                            X  X         ",
"                      X                               X                               X         "
};
