/* XPM */
static char *e8a28407d5f148e5cbb3c176c272dbb4yPkf7OIfZi2c3jFs[] = {
/* columns rows colors chars-per-pixel */
"96 32 10 1 ",
"  c black",
". c #191715",
"X c #795547",
"o c #96725F",
"O c #AE846E",
"+ c #948880",
"@ c #A79A90",
"# c #BAACA1",
"$ c #C2B09B",
"% c #D4C0AA",
/* pixels */
"                                                                                                ",
"                                                                                                ",
"                                                                                                ",
"                                                                                                ",
"                                                                                                ",
"    @        @                      @        @                      @        @                  ",
" @ @#       #@                   @ @#       #@                   @ @#       #@                  ",
"# @#      @#@  @                # @#      @#@  @                # @#      @#@  @                ",
"@++@XX@@OXX@+#@                 @++@XX@@OXX@+#@                 @++@XX@@OXX@+#@                 ",
"  @+%%.OOo%+@                     @+%%.OOo%+@                     @+%%.OOo%+@                   ",
"  .OOOOOo                         .OOOOOo                         .OOOOOo                       ",
"  ooOOOOo                         ooOOOOo                         ooOOOOo                       ",
"    oOOOo                           oOOOo                           oOOOo                       ",
"    $%OOOo                          $%OOOo                          $%OOOo                      ",
"     $%OOOoo       ooooooo oOO       $%OOOoo       ooooooo oOO       $%OOOoo       ooooooo oOO  ",
"      $%%OOOoooooooOOOOOOOoOo         $%%OOOoooooooOOOOOOOoOo         $%%OOOoooooooOOOOOOOoOo   ",
"       $%OOOOOOOOOOOOOOOOOOo           $%OOOOOOOOOOOOOOOOOOo           $%OOOOOOOOOOOOOOOOOOo    ",
"       $%OOOOOOOOOOOOOOOOOoo           $%OOOOOOOOOOOOOOOOOoo           $%OOOOOOOOOOOOOOOOOoo    ",
"        $%OOOOOOOOOOOOOOOOo             $%OOOOOOOOOOOOOOOOo             $%OOOOOOOOOOOOOOOOo     ",
"        $%OOOOOOOOOOOOOOOOo             $%OOOOOOOOOOOOOOOOo             $%OOOOOOOOOOOOOOOOo     ",
"        @$OOOOOOOOOO%%%OOo%$            @$OOOOOOOOOO%%%OOo%$            @$OOOOOOOOOO%%%OOo%$    ",
"        @$%OOOO$$$$$$$$%%%%%$           @$%OOOO$$$$$$$$%%%%%$           @$%OOOO$$$$$$$$%%%%%$   ",
"       @@$%%%$%        $$$$%%          @@$%%%$%        $$$$%%          @@$%%%$%        $$$$%%   ",
"       @$%%$$            @XX$%         @$%%$$            @XX$%         @$%%$$            @XX$%  ",
"       @%%$                  $XX       @%%$                  $XX       @%%$                  $XX",
"      @@%$                            @@%$                            @@%$                      ",
"      @ %                             @ %                             @ %                       ",
"      @ %                             @ %                             @ %                       ",
"     X  %                            X  %                            X  %                       ",
"     X X                             X X                             X X                        ",
"       X                               X                               X                        ",
"                                                                                                "
};
